<svg xmlns="http://www.w3.org/2000/svg" xmlns:xlink="http://www.w3.org/1999/xlink" width="256" height="256" viewBox="0 0 256 256"><defs><clipPath id="b"><rect width="256" height="256"/></clipPath></defs><g id="a" clip-path="url(#b)"><rect width="256" height="256" fill="#0c0c29"/><path d="M43.709,86.507c2.384,1.259,4.375,2.29,5.764,3.1l-4.606,3.828L34.92,101.7a4.1,4.1,0,0,0-2.8,2.623,4.179,4.179,0,0,0,.593,3.806c2.844,3.785,12.016,9.679,23.476,13.808a84.3,84.3,0,0,0,14.1,3.77,83.947,83.947,0,0,0,14.1-3.77c11.459-4.129,20.632-10.023,23.476-13.808a4.2,4.2,0,0,0,.593-3.806,4.088,4.088,0,0,0-2.8-2.623L95.7,93.436,91.1,89.608c1.393-.81,3.38-1.842,5.764-3.1,14.5-7.642,43.709-23.649,43.709-49.47,0-16.438-3.806-28.321-6.636-34.211A5.276,5.276,0,0,0,129.1,0a6.609,6.609,0,0,0-6.2,4.834c-8.807,29.12-16.413,32.938-32,34.255a.541.541,0,0,0-.076.007V22.636A20.571,20.571,0,0,0,70.286,2.059H44.6a3.161,3.161,0,0,0-3.162,3.162,3.26,3.26,0,0,0,.539,1.748l7.693,11.55v20.57c-15.588-1.317-23.19-5.134-32-34.255A6.6,6.6,0,0,0,11.474,0,5.265,5.265,0,0,0,6.64,2.83C3.806,8.72,0,20.6,0,37.041c0,25.82,29.214,41.828,43.709,49.47Zm20.122-65.72a5.583,5.583,0,1,1,5.583,5.583A5.584,5.584,0,0,1,63.831,20.787Z" transform="translate(58 65)" fill="#7572fb"/></g></svg>